# xmcd
# Track frame offsets:
# 150
# 4588
# 17446
# 30571
# 43680
# 56485
# 69961
# 82599
# 95191
# 107952
# 119725
# 132802
# 146182
# 158159
# 170720
# 184413
# 197655
# 212431
# 224835
# 239611
#
# Disc length: 3358 seconds
# Revision: 0
# Processed by: cddbd v1.5.2PL0 Copyright (c) Steve Scherf et al.
# Submitted via: VisiTrax 2.11.2.271 - For more info visit www.synapsa.com
#
DISCID=230d1c14
DTITLE=Blind Boy Fuller - The Best of   D2
DYEAR=2008
DGENRE=Blues
TTITLE0=Red's Got The Piccolo Blues
TTITLE1=Sweet Honey Hole
TTITLE2=Sweet Louise Louise Blues
TTITLE3=It Doesn't Matter Baby
TTITLE4=I Crave My Pigmeat
TTITLE5=No Stranger Now
TTITLE6=Lost Lover Blues
TTITLE7=You Got Something There
TTITLE8=I Don't Want No Skinny Woman
TTITLE9=Baby Quite Your Low Down Ways (Take 1)
TTITLE10=Piccolo Rag
TTITLE11=Walking My Troubles Away (Take 2)
TTITLE12=Tom Cat Blues
TTITLE13=Meat Shakin' Woman
TTITLE14=My Brownskin Sugar Plum
TTITLE15=I'm A Stranger Here
TTITLE16=Keep Away From My Woman (Take 2)
TTITLE17=Bus Rider Blues
TTITLE18=Bulldog Blues
TTITLE19=Pistol Slapper Blues
EXTD=
EXTT0=
EXTT1=
EXTT2=
EXTT3=
EXTT4=
EXTT5=
EXTT6=
EXTT7=
EXTT8=
EXTT9=
EXTT10=
EXTT11=
EXTT12=
EXTT13=
EXTT14=
EXTT15=
EXTT16=
EXTT17=
EXTT18=
EXTT19=
PLAYORDER=
